<svg width="24" height="28" viewBox="0 0 24 28" fill="none" xmlns="http://www.w3.org/2000/svg">
<path d="M16.8662 0.666675C17.4323 0.665345 17.8799 1.10512 17.8812 1.6915L17.8825 2.691C21.5554 2.97885 23.9816 5.4816 23.9855 9.31968L24 20.5541C24.0053 24.7386 21.3763 27.3133 17.1624 27.32L6.86919 27.3333C2.6816 27.3387 0.0197643 24.7026 0.0144985 20.5061L8.83653e-06 9.40364C-0.00524805 5.54024 2.33538 3.04415 6.00824 2.70699L6.00692 1.70749C6.0056 1.12112 6.44003 0.680004 7.01926 0.680004C7.59849 0.678672 8.03292 1.11845 8.03423 1.70482L8.03555 2.63769L15.8552 2.62703L15.8539 1.69416C15.8526 1.10779 16.287 0.66801 16.8662 0.666675ZM17.4033 19.5892H17.3902C16.7846 19.6039 16.2988 20.1116 16.312 20.7246C16.3133 21.3377 16.8017 21.8427 17.4073 21.8561C18.0247 21.8547 18.5249 21.347 18.5236 20.7206C18.5236 20.0943 18.022 19.5892 17.4033 19.5892ZM6.55588 19.5905C5.95031 19.6172 5.4764 20.1249 5.47771 20.738C5.50536 21.351 6.0056 21.8307 6.61117 21.8028C7.20488 21.7761 7.67748 21.2684 7.64983 20.6553C7.63667 20.0556 7.14827 19.5892 6.55588 19.5905ZM11.9796 19.5839C11.374 19.6119 10.9014 20.1183 10.9014 20.7313C10.9291 21.3443 11.4293 21.8228 12.0349 21.7961C12.6273 21.7681 13.1012 21.2617 13.0736 20.6473C13.0604 20.049 12.572 19.5825 11.9796 19.5839ZM6.54929 14.7929C5.94373 14.8196 5.47113 15.3273 5.47244 15.9404C5.49878 16.5534 6.00034 17.0331 6.6059 17.0052C7.1983 16.9785 7.6709 16.4708 7.64325 15.8577C7.63009 15.258 7.14301 14.7916 6.54929 14.7929ZM11.9743 14.7463C11.3688 14.7729 10.8949 15.2807 10.8962 15.8937C10.9225 16.5067 11.4241 16.9852 12.0296 16.9585C12.622 16.9305 13.0946 16.4241 13.0683 15.8111C13.0538 15.2114 12.5667 14.745 11.9743 14.7463ZM17.3981 14.753C16.7925 14.7663 16.3186 15.2594 16.3199 15.8724V15.8871C16.3331 16.5001 16.8333 16.9652 17.4402 16.9519C18.0326 16.9372 18.5052 16.4295 18.492 15.8164C18.4644 15.2301 17.9891 14.7516 17.3981 14.753ZM15.8578 4.67933L8.03818 4.69L8.0395 5.76812C8.0395 6.3425 7.60639 6.79561 7.02716 6.79561C6.44793 6.79694 6.01219 6.34517 6.01219 5.77079L6.01087 4.74464C3.44382 5.00184 2.02338 6.51042 2.02732 9.40097L2.02865 9.81543L21.9595 9.78878V9.32234C21.9029 6.45711 20.4654 4.95386 17.8851 4.72998L17.8865 5.75613C17.8865 6.32918 17.4402 6.78361 16.8741 6.78361C16.2949 6.78495 15.8591 6.33184 15.8591 5.75879L15.8578 4.67933Z" fill="#5646C3"/>
</svg>
