<svg width="30" height="30" viewBox="0 0 30 30" fill="none" xmlns="http://www.w3.org/2000/svg">
<path d="M17.0359 15L29.0103 3.02555C29.247 2.74922 29.3706 2.39378 29.3566 2.03025C29.3425 1.66672 29.1918 1.32187 28.9346 1.06462C28.6773 0.807375 28.3325 0.656672 27.9689 0.64263C27.6054 0.628589 27.25 0.752243 26.9736 0.988881L14.9992 12.9633L3.02476 0.974436C2.75276 0.702442 2.38386 0.549637 1.9992 0.549637C1.61454 0.549637 1.24564 0.702442 0.973646 0.974436C0.701652 1.24643 0.548847 1.61533 0.548847 1.99999C0.548847 2.38465 0.701652 2.75355 0.973646 3.02555L12.9625 15L0.973646 26.9744C0.822439 27.1039 0.699632 27.2633 0.612932 27.4425C0.526231 27.6217 0.47751 27.8169 0.469826 28.0158C0.462143 28.2147 0.495662 28.4131 0.56828 28.5985C0.640899 28.7838 0.75105 28.9522 0.891818 29.0929C1.03259 29.2337 1.20093 29.3438 1.38629 29.4165C1.57165 29.4891 1.77002 29.5226 1.96895 29.5149C2.16787 29.5072 2.36306 29.4585 2.54227 29.3718C2.72147 29.2851 2.88082 29.1623 3.01031 29.0111L14.9992 17.0367L26.9736 29.0111C27.25 29.2477 27.6054 29.3714 27.9689 29.3574C28.3325 29.3433 28.6773 29.1926 28.9346 28.9354C29.1918 28.6781 29.3425 28.3333 29.3566 27.9697C29.3706 27.6062 29.247 27.2508 29.0103 26.9744L17.0359 15Z" fill="white"/>
</svg>
