<svg width="15" height="20" viewBox="0 0 15 20" fill="none" xmlns="http://www.w3.org/2000/svg">
<path fill-rule="evenodd" clip-rule="evenodd" d="M7.50377 0.833328C4.81425 0.833328 2.63396 3.02291 2.63396 5.7239C2.63396 8.42489 4.81425 10.6145 7.50377 10.6145C10.1933 10.6145 12.3736 8.42489 12.3736 5.7239C12.3736 3.02291 10.1933 0.833328 7.50377 0.833328ZM7.50377 2.16036C9.46351 2.16036 11.0522 3.75581 11.0522 5.7239C11.0522 7.692 9.46351 9.28745 7.50377 9.28745C5.54404 9.28745 3.95536 7.692 3.95536 5.7239C3.95536 3.75581 5.54404 2.16036 7.50377 2.16036ZM5.51072 12.5858C4.79781 12.6353 4.0772 12.7371 3.3664 12.8894C1.9945 13.172 0.896952 13.7366 0.429806 14.6749C0.253612 15.0418 0.165028 15.4347 0.166523 15.8325C0.165994 16.2274 0.253861 16.6208 0.423737 16.9807C0.872285 17.9081 1.84199 18.433 3.15139 18.724L3.38595 18.7729C4.07745 18.9289 4.79828 19.034 5.52393 19.0833C5.58573 19.1014 5.73303 19.1182 5.8938 19.1265L6.02604 19.1314C6.09403 19.133 6.1712 19.1334 6.28618 19.1334C7.3292 19.1908 8.41047 19.1741 9.48673 19.0824C10.0603 19.0432 10.6377 18.9682 11.2103 18.8583L11.6387 18.7693C13.0526 18.4904 14.1114 17.96 14.5752 16.9817C14.9191 16.2554 14.9191 15.4126 14.5754 14.6867C14.1127 13.7109 13.0674 13.1849 11.6279 12.8883C11.0632 12.7677 10.4893 12.6785 9.91129 12.6216L9.48873 12.5858C8.16527 12.4691 6.83417 12.4691 5.51072 12.5858ZM9.3731 13.9077L9.38472 13.9087C10.0481 13.9554 10.7073 14.0485 11.3578 14.1873C12.427 14.4076 13.1526 14.7728 13.3822 15.2569C13.555 15.6219 13.555 16.0461 13.382 16.4115C13.1675 16.8639 12.5158 17.2134 11.5739 17.4269L11.3677 17.4706C10.7045 17.6186 10.0474 17.714 9.38593 17.7593C8.35961 17.8466 7.33937 17.8624 6.32171 17.8073L5.9609 17.8011C5.86074 17.796 5.77633 17.7864 5.6981 17.7707C5.07867 17.7239 4.52128 17.6499 3.98008 17.5426L3.65694 17.4742C2.5844 17.264 1.85239 16.8973 1.61505 16.4066C1.53201 16.2305 1.48765 16.0319 1.48791 15.8309C1.48717 15.6309 1.53094 15.4368 1.61592 15.2597C1.84669 14.7964 2.62243 14.3973 3.63705 14.1883C4.29218 14.0479 4.95115 13.9548 5.61419 13.9087C6.87286 13.7978 8.12658 13.7978 9.3731 13.9077Z" fill="white"/>
</svg>
