<svg width="13" height="21" viewBox="0 0 13 21" fill="none" xmlns="http://www.w3.org/2000/svg">
<g clip-path="url(#clip0)">
<path d="M4.59087 8.09374H12.6786C12.8561 8.09374 13 7.94683 13 7.76562V6.23437C13 6.05316 12.8561 5.90624 12.6786 5.90624H4.59087V4.64682C4.59087 4.06215 3.89843 3.76936 3.49343 4.18277L1.18827 6.53594C0.937211 6.79224 0.937211 7.20775 1.18827 7.46402L3.49343 9.81719C3.8984 10.2306 4.59087 9.93781 4.59087 9.35314V8.09374Z" fill="#5646C3"/>
</g>
<g clip-path="url(#clip1)">
<path d="M8.40913 12.9063L0.321422 12.9063C0.143913 12.9063 -7.28341e-06 13.0532 -7.29925e-06 13.2344L-7.43312e-06 14.7656C-7.44896e-06 14.9469 0.143912 15.0938 0.321422 15.0938L8.40913 15.0938L8.40913 16.3532C8.40913 16.9379 9.10157 17.2307 9.50657 16.8172L11.8117 14.4641C12.0628 14.2078 12.0628 13.7923 11.8117 13.536L9.50657 11.1828C9.1016 10.7694 8.40913 11.0622 8.40913 11.6469L8.40913 12.9063Z" fill="#5646C3"/>
</g>
<defs>
<clipPath id="clip0">
<rect width="12" height="14" fill="white" transform="translate(1)"/>
</clipPath>
<clipPath id="clip1">
<rect width="12" height="14" fill="white" transform="translate(12 21) rotate(-180)"/>
</clipPath>
</defs>
</svg>
